Coordinates
version=1
nRows=12
nColumns=42
inDegrees=yes

Units are S.I. units (second, meters, Newtons, ...)
If the header above contains a line with 'inDegrees', this indicates whether rotational values are in degrees (yes) or radians (no).

endheader
time	pelvis_tilt	pelvis_list	pelvis_rotation	pelvis_tx	pelvis_ty	pelvis_tz	hip_flexion_r	hip_adduction_r	hip_rotation_r	knee_angle_r	knee_adduction_r	knee_angle_r_beta	ankle_angle_r	subtalar_angle_r	mtp_angle_r	hip_flexion_l	hip_adduction_l	hip_rotation_l	knee_angle_l	knee_adduction_l	knee_angle_l_beta	ankle_angle_l	subtalar_angle_l	mtp_angle_l	lumbar_extension	lumbar_bending	lumbar_rotation	arm_flex_r	arm_add_r	arm_rot_r	elbow_flex_r	pro_sup_r	wrist_flex_r	wrist_dev_r	arm_flex_l	arm_add_l	arm_rot_l	elbow_flex_l	pro_sup_l	wrist_flex_l	wrist_dev_l
      0.45000000	      5.53027929	      0.91887871	     -9.39449455	     -1.88172068	      0.97480453	      0.24440533	    -21.08535870	     -6.78072478	      6.25835290	     27.44511216	      8.02949919	      0.47900757	      3.15285210	     -3.81513034	     -9.26018950	     19.82349262	     -7.57780268	    -11.84479615	     17.75144049	     11.57830580	      0.30982108	     -8.00510138	    -12.64623509	     -9.26018950	    -17.19072435	     -7.48168848	     11.05128339	     14.67663914	    -18.81453836	     -7.86211064	     42.97717912	     90.00000001	      0.00000000	      0.00000000	    -13.72994630	     -8.21422368	    -27.66502202	     10.26427054	     90.00000001	      0.00000000	      0.00000000
      0.46000000	      5.86256649	      1.77004947	     -9.40319578	     -1.86460217	      0.97734984	      0.24262631	    -20.54599668	     -7.91515399	      5.69452782	     30.08901603	      8.10654754	      0.52515240	     -0.56093069	     -5.15854765	     -9.18278940	     19.07820886	     -6.39990395	    -11.80183261	     18.69992716	     11.48226826	      0.32637530	     -7.80166712	    -12.77387572	     -9.18278940	    -17.31963154	     -8.48300615	     10.75503433	     13.98385052	    -18.40504648	     -8.35288706	     42.53038309	     90.00000001	      0.00000000	      0.00000000	    -13.30960336	     -8.41087477	    -27.71516524	     10.07263185	     90.00000001	      0.00000000	      0.00000000
      0.47000000	      6.25235848	      2.62333600	     -9.42703120	     -1.84750589	      0.98023464	      0.24062223	    -19.83644332	     -9.10928735	      4.93896666	     32.97918742	      8.08994054	      0.57559541	     -4.46299019	     -5.90769505	     -9.15955894	     18.08340188	     -5.11485268	    -11.77419142	     19.27311874	     11.35879329	      0.33637938	     -7.28022257	    -12.90664677	     -9.15955894	    -17.53024798	     -9.44834890	     10.40176771	     13.25297002	    -18.10472001	     -8.44281085	     42.12171325	     90.00000001	      0.00000000	      0.00000000	    -12.90921124	     -8.55872442	    -27.74342670	     10.14821527	     90.00000001	      0.00000000	      0.00000000
      0.48000000	      6.62100749	      3.25619170	     -9.39638894	     -1.83060706	      0.98337958	      0.23860050	    -19.01564679	    -10.02890597	      4.82116455	     35.83848572	      8.34923149	      0.62549957	     -9.46680992	     -8.99392795	     -9.05617087	     17.00020403	     -4.03175273	    -11.82801949	     19.71148149	     11.23067813	      0.34403025	     -6.60630176	    -12.55362778	     -9.05617087	    -17.76183697	    -10.13764345	     10.03173715	     12.64079630	    -17.68132780	     -8.92550259	     41.40706725	     90.00000001	      0.00000000	      0.00000000	    -12.35513545	     -8.66591166	    -28.03792139	     10.05523839	     90.00000001	      0.00000000	      0.00000000
      0.49000000	      6.95568586	      3.94234463	     -9.39685554	     -1.81404065	      0.98645896	      0.23645556	    -17.83196331	    -11.04853118	      3.93172241	     39.11179432	      8.07980263	      0.68262959	    -13.62190671	     -9.61170331	     -9.02871977	     15.81645007	     -2.81347400	    -11.88202728	     19.80235351	     11.05168243	      0.34561627	     -5.87009350	    -12.36376352	     -9.02871977	    -17.97587049	    -10.85146307	      9.63833482	     11.88656458	    -17.41454322	     -8.90406856	     40.95944487	     90.00000001	      0.00000000	      0.00000000	    -11.83443054	     -8.75194929	    -28.08820325	     10.19614310	     90.00000001	      0.00000000	      0.00000000
      0.50000000	      7.21554857	      4.30560439	     -9.33654987	     -1.79800470	      0.98954389	      0.23450303	    -16.48858016	    -11.63324864	      3.60936667	     42.33031604	      7.96314740	      0.73880339	    -18.18504644	    -11.84275067	     -8.92382420	     14.66281818	     -1.98580773	    -12.18560131	     19.89946527	     10.84503094	      0.34731119	     -4.84292889	    -11.50102961	     -8.92382420	    -18.20384700	    -11.19735989	      9.23351274	     11.30236891	    -17.07111239	     -9.00007479	     40.24487589	     90.00000001	      0.00000000	      0.00000000	    -11.16569037	     -8.80990504	    -28.35874467	     10.29251714	     90.00000001	      0.00000000	      0.00000000
      0.51000000	      7.32912733	      4.61444770	     -9.20570051	     -1.78266328	      0.99232811	      0.23260780	    -14.75869788	    -12.10258941	      2.71999498	     45.77921231	      7.32691764	      0.79899798	    -21.52578215	    -12.25563624	     -8.88571058	     13.61624015	     -1.21250428	    -12.26453067	     19.79905215	     10.67604686	      0.34555865	     -3.95711781	    -10.96964586	     -8.88571058	    -18.35454963	    -11.44854576	      8.73588855	     10.66286284	    -16.78609135	     -8.89617237	     39.78016935	     90.00000001	      0.00000000	      0.00000000	    -10.57074034	     -8.88470138	    -28.27189624	     10.60059572	     90.00000001	      0.00000000	      0.00000000
      0.52000000	      7.29520845	      4.68316495	     -9.07378090	     -1.76808851	      0.99488464	      0.23104700	    -12.76596271	    -12.23154095	      2.20896421	     49.18872553	      6.74260336	      0.85850522	    -23.91951148	    -12.62486866	     -8.86015673	     12.67292894	     -0.79062234	    -12.28363136	     19.60869337	     10.60929231	      0.34223626	     -2.99481912	    -10.48010630	     -8.86015673	    -18.43627718	    -11.44184168	      8.34117457	     10.06175274	    -16.49680825	     -8.76726078	     39.29906497	     90.00000001	      0.00000000	      0.00000000	     -9.88070053	     -8.95173826	    -28.14673732	     11.03386528	     90.00000001	      0.00000000	      0.00000000
      0.53000000	      7.10585092	      4.46332014	     -8.63757819	     -1.75433956	      0.99722387	      0.22970317	    -10.62233621	    -11.86533049	      1.54607086	     52.44623176	      6.11427431	      0.91535942	    -26.48007774	    -14.77613692	     -8.77739170	     12.04919432	     -0.76437695	    -12.24278757	     19.75323531	     10.53058194	      0.34475899	     -2.01862808	     -9.42723847	     -8.77739170	    -18.50534160	    -11.07814350	      7.63621605	      9.81499917	    -16.09334158	     -8.67243558	     38.27107769	     90.00000001	      0.00000000	      0.00000000	     -9.02209968	     -9.10278139	    -27.94082307	     11.25418635	     90.00000001	      0.00000000	      0.00000000
      0.54000000	      6.76996854	      4.16145113	     -8.22082422	     -1.74121014	      0.99926645	      0.22862053	     -8.21230628	    -11.36822875	      0.75518553	     55.63989612	      5.28757083	      0.97109938	    -27.31125981	    -15.54688995	     -8.73347208	     11.54404953	     -0.90748018	    -11.99112272	     19.76299837	     10.58299093	      0.34492939	     -1.17314971	     -8.84227577	     -8.73347208	    -18.47339870	    -10.63182440	      7.00192008	      9.41215413	    -15.71470261	     -8.51844325	     37.67770981	     90.00000001	      0.00000000	      0.00000000	     -8.17306883	     -9.26972773	    -27.71444542	     11.74026841	     90.00000001	      0.00000000	      0.00000000
      0.55000000	      6.33112432	      3.76075666	     -7.77447522	     -1.72843626	      1.00113534	      0.22769693	     -5.69675831	    -10.74687011	      0.12418150	     58.59876237	      4.65314396	      1.02274134	    -27.09332388	    -16.33275688	     -8.70560182	     11.11976421	     -1.21174935	    -11.57775368	     19.68719344	     10.72044888	      0.34360635	     -0.34233245	     -8.31054821	     -8.70560182	    -18.35224417	    -10.06909584	      6.40227518	      8.97087186	    -15.34699261	     -8.36886982	     37.07318740	     90.00000001	      0.00000000	      0.00000000	     -7.25676668	     -9.45472407	    -27.47593766	     12.27080460	     90.00000001	      0.00000000	      0.00000000
      0.56000000	      5.88780329	      3.22809883	     -7.33572655	     -1.71576079	      1.00300559	      0.22698382	     -3.19810253	     -9.95918150	     -0.72061290	     61.22852537	      3.87314223	      1.06863936	    -26.55828215	    -17.22346170	     -8.66299237	     10.68313556	     -1.74113145	    -11.31263768	     19.65260329	     10.91043535	      0.34300263	      0.47108318	     -7.63986548	     -8.66299237	    -18.21807161	     -9.37544727	      5.79165994	      8.74505232	    -14.91272644	     -8.26406016	     36.05250965	     90.00000001	      0.00000000	      0.00000000	     -6.32979195	     -9.67588905	    -27.07819144	     12.71766873	     90.00000001	      0.00000000	      0.00000000
